{
    "asset" : {
        "generator" : "Khronos glTF Blender I/O v0.9.36",
        "version" : "2.0"
    },
    "scene" : 0,
    "scenes" : [
        {
            "name" : "Scene",
            "nodes" : [
                0
            ]
        }
    ],
    "nodes" : [
        {
            "mesh" : 0,
            "name" : "LargeHealth"
        }
    ],
    "materials" : [
        {
            "doubleSided" : true,
            "name" : "\u0441\u0442\u0435\u043a\u043b\u043e",
            "pbrMetallicRoughness" : {
                "baseColorFactor" : [
                    0.8000000715255737,
                    0.007649767678231001,
                    0,
                    1
                ],
                "metallicFactor" : 0,
                "roughnessFactor" : 0
            }
        },
        {
            "doubleSided" : true,
            "name" : "propka",
            "pbrMetallicRoughness" : {
                "baseColorTexture" : {
                    "index" : 0,
                    "texCoord" : 0
                },
                "metallicFactor" : 0,
                "roughnessFactor" : 0.8500000238418579
            }
        },
        {
            "doubleSided" : true,
            "name" : "verevka",
            "pbrMetallicRoughness" : {
                "baseColorFactor" : [
                    0.07319699972867966,
                    0.03494400158524513,
                    0.010564000345766544,
                    1
                ],
                "metallicFactor" : 0,
                "roughnessFactor" : 0.699999988079071
            }
        }
    ],
    "meshes" : [
        {
            "name" : "colba_1.014_Cube.077",
            "primitives" : [
                {
                    "attributes" : {
                        "POSITION" : 0,
                        "NORMAL" : 1,
                        "TEXCOORD_0" : 2
                    },
                    "indices" : 3,
                    "material" : 0
                },
                {
                    "attributes" : {
                        "POSITION" : 4,
                        "NORMAL" : 5,
                        "TEXCOORD_0" : 6
                    },
                    "indices" : 7,
                    "material" : 1
                },
                {
                    "attributes" : {
                        "POSITION" : 8,
                        "NORMAL" : 9,
                        "TEXCOORD_0" : 10
                    },
                    "indices" : 11,
                    "material" : 2
                }
            ]
        }
    ],
    "textures" : [
        {
            "source" : 0
        }
    ],
    "images" : [
        {
            "bufferView" : 8,
            "mimeType" : "image/png",
            "name" : "propki"
        }
    ],
    "accessors" : [
        {
            "bufferView" : 0,
            "componentType" : 5126,
            "count" : 488,
            "max" : [
                0.680556058883667,
                2.742351531982422,
                0.6029065847396851
            ],
            "min" : [
                -0.6138900518417358,
                0.006112410221248865,
                -0.6611182689666748
            ],
            "type" : "VEC3"
        },
        {
            "bufferView" : 1,
            "componentType" : 5126,
            "count" : 488,
            "type" : "VEC3"
        },
        {
            "bufferView" : 2,
            "componentType" : 5126,
            "count" : 488,
            "type" : "VEC2"
        },
        {
            "bufferView" : 3,
            "componentType" : 5123,
            "count" : 2040,
            "type" : "SCALAR"
        },
        {
            "bufferView" : 4,
            "componentType" : 5126,
            "count" : 56,
            "max" : [
                0.19227302074432373,
                2.8881845474243164,
                0.13203787803649902
            ],
            "min" : [
                -0.15463101863861084,
                2.4230785369873047,
                -0.21486711502075195
            ],
            "type" : "VEC3"
        },
        {
            "bufferView" : 5,
            "componentType" : 5126,
            "count" : 56,
            "type" : "VEC3"
        },
        {
            "bufferView" : 6,
            "componentType" : 5126,
            "count" : 56,
            "type" : "VEC2"
        },
        {
            "bufferView" : 7,
            "componentType" : 5123,
            "count" : 288,
            "type" : "SCALAR"
        },
        {
            "bufferView" : 9,
            "componentType" : 5126,
            "count" : 1176,
            "max" : [
                0.3151439428329468,
                2.0557284355163574,
                0.2756156921386719
            ],
            "min" : [
                -0.2691030502319336,
                1.8267713785171509,
                -0.33480334281921387
            ],
            "type" : "VEC3"
        },
        {
            "bufferView" : 10,
            "componentType" : 5126,
            "count" : 1176,
            "type" : "VEC3"
        },
        {
            "bufferView" : 11,
            "componentType" : 5126,
            "count" : 1176,
            "type" : "VEC2"
        },
        {
            "bufferView" : 12,
            "componentType" : 5123,
            "count" : 4608,
            "type" : "SCALAR"
        }
    ],
    "bufferViews" : [
        {
            "buffer" : 0,
            "byteLength" : 5856,
            "byteOffset" : 0
        },
        {
            "buffer" : 0,
            "byteLength" : 5856,
            "byteOffset" : 5856
        },
        {
            "buffer" : 0,
            "byteLength" : 3904,
            "byteOffset" : 11712
        },
        {
            "buffer" : 0,
            "byteLength" : 4080,
            "byteOffset" : 15616
        },
        {
            "buffer" : 0,
            "byteLength" : 672,
            "byteOffset" : 19696
        },
        {
            "buffer" : 0,
            "byteLength" : 672,
            "byteOffset" : 20368
        },
        {
            "buffer" : 0,
            "byteLength" : 448,
            "byteOffset" : 21040
        },
        {
            "buffer" : 0,
            "byteLength" : 576,
            "byteOffset" : 21488
        },
        {
            "buffer" : 0,
            "byteLength" : 367693,
            "byteOffset" : 22064
        },
        {
            "buffer" : 0,
            "byteLength" : 14112,
            "byteOffset" : 389760
        },
        {
            "buffer" : 0,
            "byteLength" : 14112,
            "byteOffset" : 403872
        },
        {
            "buffer" : 0,
            "byteLength" : 9408,
            "byteOffset" : 417984
        },
        {
            "buffer" : 0,
            "byteLength" : 9216,
            "byteOffset" : 427392
        }
    ],
    "buffers" : [
        {
            "byteLength" : 436608,
            "uri" : "data:application/octet-stream;base64,"
        }
    ]
}
