{
    "asset" : {
        "generator" : "Khronos glTF Blender I/O v0.9.36",
        "version" : "2.0"
    },
    "scene" : 0,
    "scenes" : [
        {
            "name" : "Scene",
            "nodes" : [
                0
            ]
        }
    ],
    "nodes" : [
        {
            "mesh" : 0,
            "name" : "SmallHealth"
        }
    ],
    "materials" : [
        {
            "doubleSided" : true,
            "name" : "\u0441\u0442\u0435\u043a\u043b\u043e",
            "pbrMetallicRoughness" : {
                "baseColorFactor" : [
                    0.8000000715255737,
                    0.007649767678231001,
                    0,
                    1
                ],
                "metallicFactor" : 0,
                "roughnessFactor" : 0
            }
        },
        {
            "doubleSided" : true,
            "name" : "propka",
            "pbrMetallicRoughness" : {
                "baseColorTexture" : {
                    "index" : 0,
                    "texCoord" : 0
                },
                "metallicFactor" : 0,
                "roughnessFactor" : 0.8500000238418579
            }
        },
        {
            "doubleSided" : true,
            "name" : "verevka",
            "pbrMetallicRoughness" : {
                "baseColorFactor" : [
                    0.07319699972867966,
                    0.03494400158524513,
                    0.010564000345766544,
                    1
                ],
                "metallicFactor" : 0,
                "roughnessFactor" : 0.699999988079071
            }
        }
    ],
    "meshes" : [
        {
            "name" : "Sphere.014",
            "primitives" : [
                {
                    "attributes" : {
                        "POSITION" : 0,
                        "NORMAL" : 1,
                        "TEXCOORD_0" : 2
                    },
                    "indices" : 3,
                    "material" : 0
                },
                {
                    "attributes" : {
                        "POSITION" : 4,
                        "NORMAL" : 5,
                        "TEXCOORD_0" : 6
                    },
                    "indices" : 7,
                    "material" : 1
                },
                {
                    "attributes" : {
                        "POSITION" : 8,
                        "NORMAL" : 9,
                        "TEXCOORD_0" : 10
                    },
                    "indices" : 11,
                    "material" : 2
                }
            ]
        }
    ],
    "textures" : [
        {
            "source" : 0
        }
    ],
    "images" : [
        {
            "bufferView" : 8,
            "mimeType" : "image/png",
            "name" : "propki"
        }
    ],
    "accessors" : [
        {
            "bufferView" : 0,
            "componentType" : 5126,
            "count" : 1111,
            "max" : [
                0.33112359046936035,
                0.8753721117973328,
                0.3151226043701172
            ],
            "min" : [
                -0.325101375579834,
                0.019191114231944084,
                -0.34110116958618164
            ],
            "type" : "VEC3"
        },
        {
            "bufferView" : 1,
            "componentType" : 5126,
            "count" : 1111,
            "type" : "VEC3"
        },
        {
            "bufferView" : 2,
            "componentType" : 5126,
            "count" : 1111,
            "type" : "VEC2"
        },
        {
            "bufferView" : 3,
            "componentType" : 5123,
            "count" : 5940,
            "type" : "SCALAR"
        },
        {
            "bufferView" : 4,
            "componentType" : 5126,
            "count" : 56,
            "max" : [
                0.0906686782836914,
                0.9394471049308777,
                0.06920576095581055
            ],
            "min" : [
                -0.08126640319824219,
                0.7729300856590271,
                -0.10272932052612305
            ],
            "type" : "VEC3"
        },
        {
            "bufferView" : 5,
            "componentType" : 5126,
            "count" : 56,
            "type" : "VEC3"
        },
        {
            "bufferView" : 6,
            "componentType" : 5126,
            "count" : 56,
            "type" : "VEC2"
        },
        {
            "bufferView" : 7,
            "componentType" : 5123,
            "count" : 288,
            "type" : "SCALAR"
        },
        {
            "bufferView" : 9,
            "componentType" : 5126,
            "count" : 1164,
            "max" : [
                0.1673135757446289,
                0.5837121605873108,
                0.15748262405395508
            ],
            "min" : [
                -0.18049240112304688,
                0.4509931206703186,
                -0.1744241714477539
            ],
            "type" : "VEC3"
        },
        {
            "bufferView" : 10,
            "componentType" : 5126,
            "count" : 1164,
            "type" : "VEC3"
        },
        {
            "bufferView" : 11,
            "componentType" : 5126,
            "count" : 1164,
            "type" : "VEC2"
        },
        {
            "bufferView" : 12,
            "componentType" : 5123,
            "count" : 6912,
            "type" : "SCALAR"
        }
    ],
    "bufferViews" : [
        {
            "buffer" : 0,
            "byteLength" : 13332,
            "byteOffset" : 0
        },
        {
            "buffer" : 0,
            "byteLength" : 13332,
            "byteOffset" : 13332
        },
        {
            "buffer" : 0,
            "byteLength" : 8888,
            "byteOffset" : 26664
        },
        {
            "buffer" : 0,
            "byteLength" : 11880,
            "byteOffset" : 35552
        },
        {
            "buffer" : 0,
            "byteLength" : 672,
            "byteOffset" : 47432
        },
        {
            "buffer" : 0,
            "byteLength" : 672,
            "byteOffset" : 48104
        },
        {
            "buffer" : 0,
            "byteLength" : 448,
            "byteOffset" : 48776
        },
        {
            "buffer" : 0,
            "byteLength" : 576,
            "byteOffset" : 49224
        },
        {
            "buffer" : 0,
            "byteLength" : 367693,
            "byteOffset" : 49800
        },
        {
            "buffer" : 0,
            "byteLength" : 13968,
            "byteOffset" : 417496
        },
        {
            "buffer" : 0,
            "byteLength" : 13968,
            "byteOffset" : 431464
        },
        {
            "buffer" : 0,
            "byteLength" : 9312,
            "byteOffset" : 445432
        },
        {
            "buffer" : 0,
            "byteLength" : 13824,
            "byteOffset" : 454744
        }
    ],
    "buffers" : [
        {
            "byteLength" : 468568,
            "uri" : "data:application/octet-stream;base64,"
        }
    ]
}
